{
  "accessors": [
    {
      "bufferView": 2,
      "componentType": 5126,
      "count": 1235,
      "max": [
        2993.2421875,
        2998.433349609375,
        4411.033203125
      ],
      "min": [
        -3017.06640625,
        -3011.8740234375,
        -9448.697265625
      ],
      "type": "VEC3"
    },
    {
      "bufferView": 2,
      "byteOffset": 14820,
      "componentType": 5126,
      "count": 1235,
      "max": [
        1.0,
        1.0,
        1.0
      ],
      "min": [
        -1.0,
        -1.0,
        -0.8193559050559998
      ],
      "type": "VEC3"
    },
    {
      "bufferView": 3,
      "componentType": 5126,
      "count": 1235,
      "max": [
        1.0,
        1.0,
        0.999998152256012,
        1.0
      ],
      "min": [
        -0.9999099969863892,
        -1.0,
        -1.0,
        -1.0
      ],
      "type": "VEC4"
    },
    {
      "bufferView": 1,
      "componentType": 5126,
      "count": 1235,
      "max": [
        0.9977384805679321,
        0.9972193837165833
      ],
      "min": [
        0.008879604749381542,
        0.004180473275482655
      ],
      "type": "VEC2"
    },
    {
      "bufferView": 0,
      "componentType": 5125,
      "count": 4788,
      "type": "SCALAR"
    },
    {
      "bufferView": 2,
      "byteOffset": 29640,
      "componentType": 5126,
      "count": 1235,
      "max": [
        2993.2421875,
        2998.433349609375,
        4411.033203125
      ],
      "min": [
        -3017.06640625,
        -3011.8740234375,
        -9448.697265625
      ],
      "type": "VEC3"
    },
    {
      "bufferView": 2,
      "byteOffset": 44460,
      "componentType": 5126,
      "count": 1235,
      "max": [
        1.0,
        1.0,
        1.0
      ],
      "min": [
        -1.0,
        -1.0,
        -0.8193559050559998
      ],
      "type": "VEC3"
    },
    {
      "bufferView": 3,
      "byteOffset": 19760,
      "componentType": 5126,
      "count": 1235,
      "max": [
        1.0,
        1.0,
        0.999998152256012,
        1.0
      ],
      "min": [
        -0.9999099969863892,
        -1.0,
        -1.0,
        -1.0
      ],
      "type": "VEC4"
    },
    {
      "bufferView": 1,
      "byteOffset": 9880,
      "componentType": 5126,
      "count": 1235,
      "max": [
        0.9977384805679321,
        0.9972193837165833
      ],
      "min": [
        0.008879604749381542,
        0.004180473275482655
      ],
      "type": "VEC2"
    },
    {
      "bufferView": 0,
      "byteOffset": 19152,
      "componentType": 5125,
      "count": 4788,
      "type": "SCALAR"
    },
    {
      "bufferView": 2,
      "byteOffset": 59280,
      "componentType": 5126,
      "count": 1235,
      "max": [
        2993.2421875,
        2998.433349609375,
        4411.033203125
      ],
      "min": [
        -3017.06640625,
        -3011.8740234375,
        -9448.697265625
      ],
      "type": "VEC3"
    },
    {
      "bufferView": 2,
      "byteOffset": 74100,
      "componentType": 5126,
      "count": 1235,
      "max": [
        1.0,
        1.0,
        1.0
      ],
      "min": [
        -1.0,
        -1.0,
        -0.8193559050559998
      ],
      "type": "VEC3"
    },
    {
      "bufferView": 3,
      "byteOffset": 39520,
      "componentType": 5126,
      "count": 1235,
      "max": [
        1.0,
        1.0,
        0.999998152256012,
        1.0
      ],
      "min": [
        -0.9999099969863892,
        -1.0,
        -1.0,
        -1.0
      ],
      "type": "VEC4"
    },
    {
      "bufferView": 1,
      "byteOffset": 19760,
      "componentType": 5126,
      "count": 1235,
      "max": [
        0.9977384805679321,
        0.9972193837165833
      ],
      "min": [
        0.008879604749381542,
        0.004180473275482655
      ],
      "type": "VEC2"
    },
    {
      "bufferView": 0,
      "byteOffset": 38304,
      "componentType": 5125,
      "count": 4788,
      "type": "SCALAR"
    }
  ],
  "asset": {
    "extras": {
      "author": "Gamefruit (https://sketchfab.com/step)",
      "license": "CC-BY-4.0 (http://creativecommons.org/licenses/by/4.0/)",
      "source": "https://sketchfab.com/3d-models/gas-bottles-set-d671d93577b546b3bc8eda586ee75b31",
      "title": "Gas Bottles Set"
    },
    "generator": "Sketchfab-12.79.0",
    "version": "2.0"
  },
  "bufferViews": [
    {
      "buffer": 0,
      "byteLength": 57456,
      "name": "floatBufferViews",
      "target": 34963
    },
    {
      "buffer": 0,
      "byteLength": 29640,
      "byteOffset": 57456,
      "byteStride": 8,
      "name": "floatBufferViews",
      "target": 34962
    },
    {
      "buffer": 0,
      "byteLength": 88920,
      "byteOffset": 87096,
      "byteStride": 12,
      "name": "floatBufferViews",
      "target": 34962
    },
    {
      "buffer": 0,
      "byteLength": 59280,
      "byteOffset": 176016,
      "byteStride": 16,
      "name": "floatBufferViews",
      "target": 34962
    }
  ],
  "buffers": [
    {
      "byteLength": 235296,
      "uri": "scene.bin"
    }
  ],
  "images": [
    {
      "uri": "textures/gas_bottle_fire_baseColor.png"
    },
    {
      "uri": "textures/gas_bottle_fire_metallicRoughness.png"
    },
    {
      "uri": "textures/gas_bottle_fire_normal.png"
    },
    {
      "uri": "textures/gas_bottle_clean_baseColor.png"
    },
    {
      "uri": "textures/gas_bottle_clean_metallicRoughness.png"
    },
    {
      "uri": "textures/gas_bottle_dirt_baseColor.png"
    },
    {
      "uri": "textures/gas_bottle_dirt_metallicRoughness.png"
    },
    {
      "uri": "textures/gas_bottle_dirt_normal.png"
    }
  ],
  "materials": [
    {
      "doubleSided": true,
      "name": "gas_bottle_fire",
      "normalTexture": {
        "index": 2
      },
      "pbrMetallicRoughness": {
        "baseColorTexture": {
          "index": 0
        },
        "metallicRoughnessTexture": {
          "index": 1
        }
      }
    },
    {
      "doubleSided": true,
      "name": "gas_bottle_clean",
      "normalTexture": {
        "index": 2
      },
      "pbrMetallicRoughness": {
        "baseColorTexture": {
          "index": 3
        },
        "metallicFactor": 0.5489256334020393,
        "metallicRoughnessTexture": {
          "index": 4
        },
        "roughnessFactor": 0.9441368890185993
      }
    },
    {
      "doubleSided": true,
      "name": "gas_bottle_dirt",
      "normalTexture": {
        "index": 7
      },
      "pbrMetallicRoughness": {
        "baseColorFactor": [
          0.8042929062619704,
          0.8042929062619704,
          0.8042929062619704,
          1.0
        ],
        "baseColorTexture": {
          "index": 5
        },
        "metallicFactor": 0.9806179279985895,
        "metallicRoughnessTexture": {
          "index": 6
        },
        "roughnessFactor": 0.7556515209553168
      }
    }
  ],
  "meshes": [
    {
      "name": "gas_bottle_fire_gas_bottle_fire_0",
      "primitives": [
        {
          "attributes": {
            "NORMAL": 1,
            "POSITION": 0,
            "TANGENT": 2,
            "TEXCOORD_0": 3
          },
          "indices": 4,
          "material": 0,
          "mode": 4
        }
      ]
    },
    {
      "name": "gas_bottle_clean_gas_bottle_clean_0",
      "primitives": [
        {
          "attributes": {
            "NORMAL": 6,
            "POSITION": 5,
            "TANGENT": 7,
            "TEXCOORD_0": 8
          },
          "indices": 9,
          "material": 1,
          "mode": 4
        }
      ]
    },
    {
      "name": "gas_bottle_dirt_gas_bottle_dirt_0",
      "primitives": [
        {
          "attributes": {
            "NORMAL": 11,
            "POSITION": 10,
            "TANGENT": 12,
            "TEXCOORD_0": 13
          },
          "indices": 14,
          "material": 2,
          "mode": 4
        }
      ]
    }
  ],
  "nodes": [
    {
      "children": [
        1
      ],
      "matrix": [
        1.0,
        2.8327693431939985e-16,
        2.8327693431939995e-16,
        0.0,
        -2.832769343193999e-16,
        -6.123234262925839e-17,
        1.0,
        0.0,
        2.832769343193999e-16,
        -1.0,
        -6.123234262925839e-17,
        0.0,
        -0.0007061492651700974,
        -0.10422933101654053,
        0.002739180112257577,
        1.0
      ],
      "name": "Sketchfab_model"
    },
    {
      "children": [
        2
      ],
      "matrix": [
        0.0010000000474974513,
        0.0,
        0.0,
        0.0,
        0.0,
        -0.0010000000474974513,
        0.0,
        0.0,
        0.0,
        0.0,
        -0.0010000000474974513,
        0.0,
        0.0,
        0.0,
        0.0,
        1.0
      ],
      "name": "c361366c2d0c4f098c63a300b8377895.fbx"
    },
    {
      "children": [
        3,
        5,
        7
      ],
      "name": "RootNode"
    },
    {
      "children": [
        4
      ],
      "matrix": [
        0.00762201938778162,
        0.0,
        0.0,
        0.0,
        0.0,
        0.00762201938778162,
        0.0,
        0.0,
        0.0,
        0.0,
        0.00762201938778162,
        0.0,
        -54.00786590576172,
        18.40351104736328,
        73.09257507324219,
        1.0
      ],
      "name": "gas_bottle_fire"
    },
    {
      "mesh": 0,
      "name": "gas_bottle_fire_gas_bottle_fire_0"
    },
    {
      "children": [
        6
      ],
      "matrix": [
        0.006600862405702625,
        -0.0038110097151149674,
        0.0,
        0.0,
        0.0038110097151149674,
        0.006600862405702625,
        0.0,
        0.0,
        0.0,
        0.0,
        0.00762201938778162,
        0.0,
        3.1373510360717773,
        46.41231155395508,
        73.09257507324219,
        1.0
      ],
      "name": "gas_bottle_clean"
    },
    {
      "mesh": 1,
      "name": "gas_bottle_clean_gas_bottle_clean_0"
    },
    {
      "children": [
        8
      ],
      "matrix": [
        -0.0004697301057046939,
        0.00046973324891829414,
        0.007593013127710636,
        0.0,
        -0.005369041525704413,
        0.005369103898792818,
        -0.0006643011116566682,
        0.0,
        -0.005389611812367618,
        -0.005389549402689383,
        -1.6298140890554917e-09,
        0.0,
        7.870065689086914,
        -33.71295166015625,
        21.419269561767578,
        1.0
      ],
      "name": "gas_bottle_dirt"
    },
    {
      "mesh": 2,
      "name": "gas_bottle_dirt_gas_bottle_dirt_0"
    }
  ],
  "samplers": [
    {
      "magFilter": 9729,
      "minFilter": 9987,
      "wrapS": 10497,
      "wrapT": 10497
    }
  ],
  "scene": 0,
  "scenes": [
    {
      "name": "Sketchfab_Scene",
      "nodes": [
        0
      ]
    }
  ],
  "textures": [
    {
      "sampler": 0,
      "source": 0
    },
    {
      "sampler": 0,
      "source": 1
    },
    {
      "sampler": 0,
      "source": 2
    },
    {
      "sampler": 0,
      "source": 3
    },
    {
      "sampler": 0,
      "source": 4
    },
    {
      "sampler": 0,
      "source": 5
    },
    {
      "sampler": 0,
      "source": 6
    },
    {
      "sampler": 0,
      "source": 7
    }
  ]
}
